<svg width="28" height="28" viewBox="0 0 28 28" fill="none" xmlns="http://www.w3.org/2000/svg">
<path d="M26.2002 13.7002C26.2002 6.79664 20.6038 1.2002 13.7002 1.2002C6.79664 1.2002 1.2002 6.79664 1.2002 13.7002C1.2002 20.6038 6.79664 26.2002 13.7002 26.2002C20.6038 26.2002 26.2002 20.6038 26.2002 13.7002Z" stroke="#575757" stroke-width="2.4"/>
<path d="M17.4502 11.2002C17.4502 13.2713 15.7712 14.9502 13.7002 14.9502C11.6292 14.9502 9.9502 13.2713 9.9502 11.2002C9.9502 9.12912 11.6292 7.4502 13.7002 7.4502C15.7712 7.4502 17.4502 9.12912 17.4502 11.2002Z" stroke="#575757" stroke-width="2.4"/>
<path d="M21.2002 23.7002C21.2002 20.9388 17.8423 18.7002 13.7002 18.7002C9.55806 18.7002 6.2002 20.9388 6.2002 23.7002" stroke="#575757" stroke-width="2.4" stroke-linecap="round"/>
</svg>
