<svg width="30" height="30" viewBox="0 0 30 30" fill="none" xmlns="http://www.w3.org/2000/svg">
<path d="M22.5 21.25H20C19.6458 21.25 19.3492 21.13 19.11 20.89C18.8708 20.65 18.7508 20.3533 18.75 20C18.7492 19.6467 18.8692 19.35 19.11 19.11C19.3508 18.87 19.6475 18.75 20 18.75H22.5V16.25C22.5 15.8958 22.62 15.5992 22.86 15.36C23.1 15.1208 23.3967 15.0008 23.75 15C24.1033 14.9992 24.4004 15.1192 24.6412 15.36C24.8821 15.6008 25.0017 15.8975 25 16.25V18.75H27.5C27.8542 18.75 28.1512 18.87 28.3912 19.11C28.6312 19.35 28.7508 19.6467 28.75 20C28.7492 20.3533 28.6292 20.6504 28.39 20.8912C28.1508 21.1321 27.8542 21.2517 27.5 21.25H25V23.75C25 24.1042 24.88 24.4012 24.64 24.6412C24.4 24.8812 24.1033 25.0008 23.75 25C23.3967 24.9992 23.1 24.8792 22.86 24.64C22.62 24.4008 22.5 24.1042 22.5 23.75V21.25ZM3.75 26.25C3.0625 26.25 2.47417 26.0054 1.985 25.5162C1.49583 25.0271 1.25083 24.4383 1.25 23.75V6.25C1.25 5.5625 1.495 4.97417 1.985 4.485C2.475 3.99583 3.06333 3.75083 3.75 3.75H21.25C21.9375 3.75 22.5263 3.995 23.0163 4.485C23.5063 4.975 23.7508 5.56333 23.75 6.25V11.25C23.75 11.6042 23.63 11.9012 23.39 12.1412C23.15 12.3812 22.8533 12.5008 22.5 12.5C22.1467 12.4992 21.85 12.3792 21.61 12.14C21.37 11.9008 21.25 11.6042 21.25 11.25V10H3.75V23.75H18.75C19.1042 23.75 19.4013 23.87 19.6413 24.11C19.8813 24.35 20.0008 24.6467 20 25C19.9992 25.3533 19.8792 25.6504 19.64 25.8912C19.4008 26.1321 19.1042 26.2517 18.75 26.25H3.75ZM3.75 7.5H21.25V6.25H3.75V7.5Z" fill="#2A2A2A"/>
</svg>
