<svg width="26" height="27" viewBox="0 0 26 27" fill="none" xmlns="http://www.w3.org/2000/svg">
<path d="M8.77539 22.5C8.77539 23.2812 8.8672 24.1871 9.68155 24.7527C10.4959 25.3182 11.4961 25.625 12.5254 25.625C13.5547 25.625 14.5549 25.3182 15.3692 24.7527C16.1836 24.1871 16.2754 23.2812 16.2754 22.5" stroke="#575757" stroke-width="1.7" stroke-linecap="round" stroke-linejoin="round"/>
<path fill-rule="evenodd" clip-rule="evenodd" d="M4.39932 10.625C4.39932 6.13769 8.03701 2.5 12.5243 2.5V0C6.6563 0 1.89932 4.75697 1.89932 10.625V14.5092C1.89932 15.3687 1.62056 16.205 1.10486 16.8926L0.77603 17.3311C0.420021 17.8057 -0.175368 18.7261 0.0493483 19.8322C0.401313 21.5646 1.91389 22.1513 3.05342 22.3564C3.99727 22.5263 5.09443 22.5137 5.93584 22.504C6.11519 22.5019 6.28301 22.5 6.43515 22.5H12.5243V20H6.43515C6.22257 20 6.01187 20.002 5.80396 20.004C4.97055 20.0119 4.18188 20.0194 3.49634 19.896C2.64586 19.7429 2.53463 19.5007 2.50065 19.341C2.5014 19.3303 2.50576 19.3006 2.52702 19.2456C2.56737 19.1411 2.64675 19.0034 2.77603 18.8311L3.10486 18.3926C3.94511 17.2723 4.39932 15.9096 4.39932 14.5092V10.625ZM2.5006 19.3456C2.50055 19.3456 2.50048 19.3447 2.50055 19.3429L2.5006 19.3456Z" fill="#575757"/>
<path fill-rule="evenodd" clip-rule="evenodd" d="M20.6503 10.625C20.6503 6.13769 17.0116 2.5 12.5243 2.5V0C18.3923 0 23.1503 4.75697 23.1503 10.625V14.5092C23.1503 15.3687 23.4291 16.205 23.9448 16.8926L24.2736 17.3311C24.6296 17.8057 25.225 18.7261 25.0003 19.8322C24.6483 21.5646 23.1358 22.1513 21.9962 22.3564C21.0524 22.5263 19.9552 22.5137 19.1138 22.504C18.9345 22.5019 18.7666 22.5 18.6145 22.5H12.5243V20H18.6145C18.8271 20 19.0378 20.002 19.2457 20.004C20.0791 20.0119 20.8678 20.0194 21.5533 19.896C22.4038 19.7429 22.515 19.5007 22.549 19.341C22.5483 19.3303 22.5439 19.3006 22.5226 19.2456C22.4823 19.1411 22.4029 19.0034 22.2736 18.8311L21.9448 18.3926C21.1045 17.2723 20.6503 15.9096 20.6503 14.5092V10.625ZM22.549 19.3456C22.5491 19.3456 22.5492 19.3447 22.5491 19.3429L22.549 19.3456Z" fill="#575757"/>
</svg>
