<svg width="28" height="28" viewBox="0 0 28 28" fill="none" xmlns="http://www.w3.org/2000/svg">
<path d="M12.8 10.3053C11.6688 10.0176 10.683 9.33348 10.0273 8.38111C9.37159 7.42874 9.09105 6.27352 9.23826 5.132C9.38547 3.99048 9.95032 2.94102 10.8269 2.18035C11.7035 1.41967 12.8317 1 14 1C15.1683 1 16.2965 1.41967 17.1731 2.18035C18.0497 2.94102 18.6145 3.99048 18.7617 5.132C18.9089 6.27352 18.6284 7.42874 17.9727 8.38111C17.317 9.33348 16.3312 10.0176 15.2 10.3053V12.8181H20C20.6365 12.8181 21.247 13.0671 21.697 13.5104C22.1471 13.9537 22.4 14.555 22.4 15.1819V17.6947C23.5312 17.9824 24.517 18.6665 25.1727 19.6189C25.8284 20.5713 26.1089 21.7265 25.9617 22.868C25.8145 24.0095 25.2497 25.059 24.3731 25.8197C23.4965 26.5803 22.3683 27 21.2 27C20.0317 27 18.9035 26.5803 18.0269 25.8197C17.1503 25.059 16.5855 24.0095 16.4383 22.868C16.291 21.7265 16.5716 20.5713 17.2273 19.6189C17.883 18.6665 18.8688 17.9824 20 17.6947V15.1819H8.00001V17.6947C9.1312 17.9824 10.117 18.6665 10.7727 19.6189C11.4284 20.5713 11.709 21.7265 11.5617 22.868C11.4145 24.0095 10.8497 25.059 9.97308 25.8197C9.09648 26.5803 7.96829 27 6.80001 27C5.63172 27 4.50354 26.5803 3.62693 25.8197C2.75032 25.059 2.18548 24.0095 2.03827 22.868C1.89106 21.7265 2.17159 20.5713 2.82729 19.6189C3.48298 18.6665 4.46882 17.9824 5.60001 17.6947V15.1819C5.60001 14.555 5.85286 13.9537 6.30295 13.5104C6.75304 13.0671 7.36349 12.8181 8.00001 12.8181H12.8V10.3053ZM14 8.09036C14.6365 8.09036 15.247 7.84131 15.6971 7.39801C16.1471 6.9547 16.4 6.35344 16.4 5.72651C16.4 5.09957 16.1471 4.49832 15.6971 4.05501C15.247 3.6117 14.6365 3.36265 14 3.36265C13.3635 3.36265 12.753 3.6117 12.3029 4.05501C11.8529 4.49832 11.6 5.09957 11.6 5.72651C11.6 6.35344 11.8529 6.9547 12.3029 7.39801C12.753 7.84131 13.3635 8.09036 14 8.09036ZM6.80001 24.6373C7.43653 24.6373 8.04698 24.3883 8.49706 23.945C8.94715 23.5017 9.2 22.9004 9.2 22.2735C9.2 21.6466 8.94715 21.0453 8.49706 20.602C8.04698 20.1587 7.43653 19.9096 6.80001 19.9096C6.16349 19.9096 5.55304 20.1587 5.10295 20.602C4.65287 21.0453 4.40001 21.6466 4.40001 22.2735C4.40001 22.9004 4.65287 23.5017 5.10295 23.945C5.55304 24.3883 6.16349 24.6373 6.80001 24.6373ZM18.8 22.2735C18.8 22.9004 19.0529 23.5017 19.5029 23.945C19.953 24.3883 20.5635 24.6373 21.2 24.6373C21.8365 24.6373 22.447 24.3883 22.897 23.945C23.3471 23.5017 23.6 22.9004 23.6 22.2735C23.6 21.6466 23.3471 21.0453 22.897 20.602C22.447 20.1587 21.8365 19.9096 21.2 19.9096C20.5635 19.9096 19.953 20.1587 19.5029 20.602C19.0529 21.0453 18.8 21.6466 18.8 22.2735Z" fill="#2A2A2A"/>
</svg>
