<svg width="15" height="19" viewBox="0 0 15 19" fill="none" xmlns="http://www.w3.org/2000/svg">
<path d="M7.34695 0.75C10.7569 0.75 13.9246 3.48066 13.9246 6.9256C13.9246 9.20267 13.1553 10.8125 11.8661 12.6895C10.4743 14.7156 8.71 16.6271 7.85229 17.5179C7.56878 17.8123 7.10582 17.8123 6.82231 17.5179C5.9646 16.6271 4.20027 14.7156 2.80853 12.6895C1.51929 10.8125 0.75 9.20267 0.75 6.9256C0.75 3.48066 3.91763 0.75 7.32758 0.75" stroke="#777777" stroke-width="1.5" stroke-linecap="round"/>
<path d="M9.80753 7.28952C9.80753 8.66721 8.70516 9.80656 7.34118 9.80656C5.9772 9.80656 4.86705 8.66721 4.86705 7.28952C4.86705 5.91183 5.9772 4.86708 7.34118 4.86708C8.70516 4.86708 9.80753 5.91183 9.80753 7.28952Z" stroke="#777777" stroke-width="1.5"/>
</svg>
