<svg width="23" height="23" viewBox="0 0 23 23" fill="none" xmlns="http://www.w3.org/2000/svg">
<path d="M9.93359 3.659C9.93359 4.07491 10.0988 4.47378 10.3929 4.76787C10.687 5.06197 11.0859 5.22718 11.5018 5.22718C11.9177 5.22718 12.3166 5.06197 12.6106 4.76787C12.9047 4.47378 13.07 4.07491 13.07 3.659C13.07 3.24309 12.9047 2.84422 12.6106 2.55013C12.3166 2.25604 11.9177 2.09082 11.5018 2.09082C11.0859 2.09082 10.687 2.25604 10.3929 2.55013C10.0988 2.84422 9.93359 3.24309 9.93359 3.659ZM9.93359 11.4999C9.93359 11.9158 10.0988 12.3147 10.3929 12.6088C10.687 12.9029 11.0859 13.0681 11.5018 13.0681C11.9177 13.0681 12.3166 12.9029 12.6106 12.6088C12.9047 12.3147 13.07 11.9158 13.07 11.4999C13.07 11.084 12.9047 10.6851 12.6106 10.391C12.3166 10.0969 11.9177 9.93173 11.5018 9.93173C11.0859 9.93173 10.687 10.0969 10.3929 10.391C10.0988 10.6851 9.93359 11.084 9.93359 11.4999ZM9.93359 19.3408C9.93359 19.7567 10.0988 20.1556 10.3929 20.4497C10.687 20.7438 11.0859 20.909 11.5018 20.909C11.9177 20.909 12.3166 20.7438 12.6106 20.4497C12.9047 20.1556 13.07 19.7567 13.07 19.3408C13.07 18.9249 12.9047 18.526 12.6106 18.2319C12.3166 17.9379 11.9177 17.7726 11.5018 17.7726C11.0859 17.7726 10.687 17.9379 10.3929 18.2319C10.0988 18.526 9.93359 18.9249 9.93359 19.3408Z" fill="#777777"/>
</svg>
