<svg width="112" height="28" viewBox="0 0 112 28" fill="none" xmlns="http://www.w3.org/2000/svg">
<path d="M14.0869 0C16.7361 5.03555e-05 19.0625 0.568343 21.001 1.6709C22.9393 2.80691 24.6837 4.47756 26.2344 6.68262L21.8086 10.5244C21.0009 9.05441 19.999 7.88527 18.8037 7.0166C17.576 6.14788 16.0573 5.71387 14.248 5.71387C13.1173 5.71388 12.0833 5.94769 11.1787 6.34863C10.2418 6.78298 9.46644 7.35091 8.82031 8.08594C8.14186 8.8544 7.62492 9.72325 7.26953 10.7256C6.88188 11.7613 6.71973 12.8641 6.71973 14C6.71975 15.1692 6.88197 16.2381 7.26953 17.2402C7.59261 18.2426 8.10962 19.1116 8.78809 19.8467C9.43426 20.6152 10.2417 21.2172 11.2109 21.6182C12.1155 22.0525 13.1495 22.2529 14.3125 22.2529C15.2171 22.2529 16.0576 22.1519 16.833 21.918C17.5437 21.7175 18.2221 21.3835 18.8682 20.9492C19.4497 20.5483 20.0309 20.0135 20.5479 19.4121C21.0325 18.8107 21.4852 18.1425 21.9375 17.374L26.2666 21.3506C24.7805 23.4888 23.1005 25.0923 21.1621 26.2617C19.1914 27.3977 16.833 27.999 14.0869 27.999C12.0838 27.999 10.2417 27.6321 8.5293 26.9639C6.78468 26.2622 5.29899 25.2927 4.07129 24.0898C2.77897 22.8536 1.80942 21.3839 1.09863 19.6465C0.355566 17.9425 3.0562e-05 16.0715 0 14C0 11.962 0.355631 10.0909 1.09863 8.35352C1.80942 6.64949 2.77894 5.17884 4.07129 3.90918C5.29891 2.70651 6.78486 1.73774 8.5293 1.03613C10.2417 0.367888 12.0838 0 14.0869 0ZM35.9814 21.5859H48.291V27.333H29.2617V0.703125H35.9814V21.5859ZM57.9121 27.333H51.1914V0.703125H57.9121V27.333ZM78.8027 16.8408V0.703125H85.5225V27.333H78.8027L69.1416 10.8936V27.333H62.4219V0.703125H69.1416L78.8027 16.8408ZM96.7822 10.7266L104.602 0.703125H112L102.049 13.4668L112 27.333H104.602L96.7822 16.0391V27.333H90.0625V0.703125H96.7822V10.7266Z" fill="#3B82F6"/>
</svg>
