<svg width="86" height="21" viewBox="0 0 86 21" fill="none" xmlns="http://www.w3.org/2000/svg">
<path d="M10.8164 0C12.8505 0 14.6366 0.426065 16.125 1.25293C17.6135 2.10496 18.9537 3.35779 20.1445 5.01172L16.7461 7.89355C16.1259 6.79096 15.3563 5.91425 14.4385 5.2627C13.4958 4.61113 12.3297 4.28516 10.9404 4.28516C10.0722 4.28517 9.27858 4.46103 8.58398 4.76172C7.86454 5.0875 7.26863 5.51313 6.77246 6.06445C6.2516 6.64074 5.8549 7.29231 5.58203 8.04395C5.28435 8.82077 5.16017 9.64801 5.16016 10.5C5.16016 11.377 5.2844 12.1789 5.58203 12.9307C5.83012 13.6825 6.22707 14.3344 6.74805 14.8857C7.24417 15.4621 7.86424 15.9132 8.6084 16.2139C9.30303 16.5397 10.0971 16.6904 10.9902 16.6904C11.6847 16.6904 12.3295 16.6148 12.9248 16.4395C13.4706 16.2891 13.9921 16.0387 14.4883 15.7129C14.9348 15.4122 15.3814 15.0106 15.7783 14.5596C16.1503 14.1086 16.4975 13.6075 16.8447 13.0312L20.1689 16.0137C19.0278 17.6174 17.7374 18.8202 16.249 19.6973C14.7358 20.5492 12.925 21 10.8164 21C9.27845 21 7.86453 20.7247 6.5498 20.2236C5.21017 19.6974 4.06869 18.9705 3.12598 18.0684C2.13366 17.1411 1.38953 16.0385 0.84375 14.7354C0.273156 13.4573 0 12.0537 0 10.5C1.9434e-05 8.97138 0.273177 7.56774 0.84375 6.26465C1.38952 4.98673 2.13373 3.88384 3.12598 2.93164C4.06866 2.02956 5.21025 1.3026 6.5498 0.776367C7.8645 0.27528 9.27849 7.33643e-06 10.8164 0ZM27.6299 16.1895H37.082V20.5H22.4697V0.526367H27.6299V16.1895ZM44.4678 20.5H39.3076V0.526367H44.4678V20.5ZM60.5107 12.6309V0.526367H65.6709V20.5H60.5107L53.0928 8.16992V20.5H47.9326V0.526367H53.0928L60.5107 12.6309ZM74.3154 8.04492L80.3193 0.526367H86L78.3594 10.0996L86 20.5H80.3193L74.3154 12.0293V20.5H69.1553V0.526367H74.3154V8.04492Z" fill="#A7A7A7"/>
</svg>
